<svg width="728" height="652" viewBox="0 0 728 652" fill="none" xmlns="http://www.w3.org/2000/svg">
<path fill-rule="evenodd" clip-rule="evenodd" d="M42.4499 1.6591C35.8999 3.7461 27.8559 7.7371 27.8559 8.9011C27.8559 9.3151 27.2379 9.6531 26.4829 9.6531C23.7679 9.6531 11.2219 24.1981 7.41892 31.7561C0.0939236 46.3131 0.463924 38.8961 0.134924 177.621C-0.156076 300.547 -0.135076 302.141 1.85192 306.367C2.99292 308.795 5.65592 311.944 8.00892 313.649C16.0659 319.485 28.7019 316.757 32.4869 308.363C34.0679 304.856 34.2019 295.225 34.2759 179.363L34.3559 54.1531L36.6099 49.5781C40.7739 41.1281 45.8059 36.9391 54.8559 34.3871C59.9379 32.9531 61.1529 32.9781 70.8559 34.7081C87.1429 37.6131 97.2139 39.6001 98.8559 40.2351C99.6809 40.5541 103.731 41.4361 107.856 42.1951C114.979 43.5051 121.396 44.8091 144.356 49.6121C166.347 54.2111 179.811 56.8521 197.614 60.0581C202.155 60.8751 206.314 61.8181 206.856 62.1531C207.398 62.4881 211.332 63.3901 215.598 64.1581C219.865 64.9261 227.856 66.4641 233.356 67.5761C238.856 68.6881 246.956 70.2851 251.356 71.1261C255.756 71.9671 260.031 72.9161 260.856 73.2351C261.681 73.5541 265.731 74.4411 269.856 75.2071C273.981 75.9741 281.856 77.4911 287.356 78.5801C292.856 79.6681 300.893 81.2401 305.216 82.0731C309.54 82.9071 313.877 83.8421 314.856 84.1531C315.835 84.4641 320.172 85.3991 324.496 86.2331C328.819 87.0661 336.631 88.6041 341.856 89.6501C347.081 90.6971 354.956 92.2551 359.356 93.1121C363.756 93.9691 368.706 95.0851 370.356 95.5921C372.006 96.1001 375.831 96.8211 378.856 97.1961C381.881 97.5701 384.806 98.2231 385.356 98.6461C385.906 99.0701 390.406 99.9731 395.356 100.653C400.306 101.333 404.806 102.236 405.356 102.66C405.906 103.083 408.831 103.74 411.856 104.121C414.881 104.501 419.156 105.293 421.356 105.879C425.335 106.941 430.546 107.981 449.046 111.406C454.376 112.393 459.063 113.527 459.463 113.926C459.862 114.326 461.352 114.661 462.773 114.67C464.194 114.68 468.506 115.397 472.356 116.264C476.206 117.131 482.506 118.45 486.356 119.195C490.206 119.94 498.081 121.495 503.856 122.65C509.631 123.806 517.877 125.385 522.181 126.159C526.484 126.933 530.984 127.881 532.181 128.266C533.377 128.651 537.506 129.587 541.356 130.345C545.206 131.104 551.506 132.344 555.356 133.102C572.411 136.458 578.553 137.757 581.356 138.604C583.006 139.102 587.956 140.056 592.356 140.724C596.756 141.392 600.806 142.268 601.356 142.672C601.906 143.076 605.056 143.712 608.356 144.086C611.656 144.46 615.761 145.206 617.477 145.744C619.194 146.283 624.144 147.36 628.477 148.139C641.469 150.473 656.01 153.436 661.856 154.941C678.808 159.305 691.285 172.248 693.866 188.149C695.173 196.199 695.16 483.835 693.853 492.653C692.941 498.798 690.275 506.401 686.651 513.183C684.544 517.126 674.988 526.733 671.264 528.651C669.665 529.476 668.131 530.376 667.856 530.651C667.581 530.927 664.206 532.164 660.356 533.401C654.679 535.224 650.615 535.701 638.856 535.924C626.685 536.156 623.842 536.507 621.157 538.112C608.235 545.835 610.828 564.708 625.419 569.134C635.31 572.134 661.089 570.33 673.217 565.789C678.068 563.973 684.407 560.825 689.723 557.592C696.909 553.222 707.977 542.315 713.509 534.152C717.947 527.604 722.856 517.811 722.856 515.507C722.856 514.707 723.247 513.626 723.725 513.103C724.203 512.581 725.328 508.039 726.225 503.01C727.686 494.818 727.856 477.898 727.855 340.51C727.854 207.274 727.655 186.169 726.335 179.653C725.499 175.528 724.411 171.253 723.916 170.153C718.694 158.534 716.995 155.401 713.33 150.63C705.852 140.893 698.521 134.739 687.356 128.822C678.915 124.349 673.632 122.622 661.856 120.489C654.916 119.231 639.486 116.089 630.356 114.074C626.506 113.224 621.106 112.113 618.356 111.606C615.606 111.098 608.631 109.754 602.856 108.619C597.081 107.483 588.765 105.91 584.377 105.123C579.989 104.335 575.714 103.421 574.877 103.092C574.04 102.762 569.981 101.821 565.856 101.002C546.462 97.1491 538.754 95.6321 531.356 94.2101C526.956 93.3641 522.681 92.4061 521.856 92.0821C520.405 91.5111 514.887 90.4421 494.856 86.8531C489.631 85.9171 484.906 84.8661 484.356 84.5161C483.806 84.1671 480.881 83.5691 477.856 83.1881C474.831 82.8061 470.556 82.0271 468.356 81.4571C466.156 80.8861 461.206 79.8021 457.356 79.0471C453.506 78.2921 445.856 76.7491 440.356 75.6181C434.856 74.4871 426.695 72.9151 422.22 72.1261C417.746 71.3361 412.991 70.2751 411.655 69.7671C410.319 69.2591 406.555 68.5201 403.291 68.1251C400.027 67.7301 396.906 67.0761 396.356 66.6721C395.806 66.2681 391.756 65.3921 387.356 64.7241C382.956 64.0561 378.006 63.1021 376.356 62.6041C373.466 61.7311 365.125 59.9751 350.356 57.1311C346.506 56.3891 338.856 54.8371 333.356 53.6801C327.856 52.5231 319.765 50.9281 315.377 50.1341C310.989 49.3411 306.714 48.4211 305.877 48.0911C305.04 47.7611 300.981 46.8751 296.856 46.1221C292.731 45.3681 284.631 43.8061 278.856 42.6501C273.081 41.4951 265.206 39.9371 261.356 39.1881C247.228 36.4411 238.272 34.5551 234.856 33.6091C232.931 33.0761 228.242 32.1721 224.435 31.6001C220.629 31.0281 217.12 30.3161 216.638 30.0181C216.156 29.7211 212.296 28.8511 208.059 28.0861C203.822 27.3221 195.856 25.7581 190.356 24.6121C184.856 23.4661 176.765 21.8901 172.377 21.1101C167.989 20.3301 163.714 19.4211 162.877 19.0921C161.067 18.3781 150.064 16.1711 136.688 13.8371C131.371 12.9101 126.684 11.8141 126.272 11.4021C125.86 10.9901 124.36 10.6451 122.939 10.6361C121.518 10.6261 117.206 9.9301 113.356 9.0881C109.506 8.2461 102.981 6.8701 98.8559 6.0301C94.7309 5.1911 86.8559 3.5681 81.3559 2.4241C67.3729 -0.483903 50.2359 -0.820902 42.4499 1.6591ZM464.142 191.535C458.982 193.585 453.073 199.999 452.234 204.459C450.584 213.236 453.922 222.269 460.281 226.235C462.912 227.876 465.9 228.225 480.98 228.653L498.604 229.153L474.603 253.653C461.402 267.128 431.074 297.879 407.207 321.988L363.813 365.824L353.584 357.026C347.959 352.187 342.996 347.649 342.556 346.941C342.116 346.232 341.141 345.653 340.39 345.653C339.638 345.653 338.873 345.278 338.689 344.82C338.506 344.362 334.531 340.745 329.856 336.781C325.181 332.817 319.906 328.242 318.133 326.614C316.36 324.985 314.681 323.653 314.401 323.653C314.121 323.653 312.366 322.191 310.501 320.403C308.636 318.616 304.059 314.678 300.329 311.653C296.599 308.628 292.328 305.028 290.838 303.653C283.304 296.701 272.782 288.619 268.056 286.155C263.317 283.684 262.009 283.445 255.693 283.897C251.808 284.175 248.343 284.848 247.993 285.393C247.642 285.938 246.321 286.707 245.055 287.102C242.398 287.931 80.7019 449.69 77.5429 454.678C75.9479 457.198 75.4439 459.607 75.4439 464.719C75.4439 471 75.6899 471.745 79.1599 475.979C83.9139 481.78 90.6109 483.697 99.3159 481.749L104.776 480.528L181.642 403.09C223.918 360.5 258.807 325.653 259.171 325.653C259.536 325.653 262.222 327.79 265.141 330.403C268.059 333.016 273.079 337.403 276.296 340.153C279.513 342.903 283.767 346.558 285.751 348.276C297.154 358.155 299.847 360.455 303.416 363.362C309.77 368.537 323.109 379.662 326.323 382.466C327.954 383.89 332.904 387.977 337.323 391.548C341.741 395.119 345.581 398.292 345.856 398.597C347.046 399.92 352.66 403.475 356.217 405.159C361.595 407.704 370.126 407.532 375.959 404.759C380.298 402.696 430.429 353.163 505.862 276.403C517.077 264.99 526.584 255.653 526.989 255.653C527.393 255.653 527.866 263.227 528.04 272.484C528.355 289.258 528.366 289.329 531.222 293.07C534.41 297.246 541.21 300.653 546.356 300.653C551.712 300.653 558.185 297.288 561.936 292.553L565.356 288.237L565.66 247.695C565.827 225.397 565.692 205.681 565.36 203.882C564.545 199.458 559.372 193.803 554.057 191.525C550.014 189.792 546.675 189.661 509.023 189.757C473.496 189.847 467.823 190.072 464.142 191.535ZM485.356 348.108C484.806 348.318 482.68 348.769 480.631 349.112C476.571 349.79 469.88 355.839 469.865 358.844C469.86 359.774 469.406 360.813 468.856 361.153C468.197 361.56 467.856 408.601 467.856 499.024C467.856 632.048 467.915 636.399 469.765 640.215C474.783 650.567 478.599 651.62 511.168 651.638C539.363 651.654 543.863 650.983 549.288 645.953C555.168 640.501 554.856 648.718 554.856 499.25C554.856 418.772 554.478 360.788 553.943 359.382C552.774 356.306 547.282 350.805 543.942 349.362C541.526 348.319 487.818 347.169 485.356 348.108ZM224.356 433.336C220.696 434.258 215.095 440.647 213.946 445.211C213.209 448.138 212.856 473.293 212.856 522.937C212.856 601.783 212.923 602.902 217.959 608.263C219.183 609.566 222.603 611.537 225.558 612.643C230.414 614.46 233.337 614.653 255.956 614.653C285.085 614.653 288.328 614.038 294.528 607.337L298.356 603.201L298.63 524.791C298.898 447.867 298.865 446.303 296.883 442.208C295.771 439.912 293.398 436.935 291.609 435.593L288.356 433.153L257.356 432.993C240.306 432.905 225.456 433.059 224.356 433.336ZM352.216 444.344C351.038 444.575 348.338 446.64 346.216 448.934L342.356 453.106L342.084 536.18L341.812 619.255L344.142 623.661C345.855 626.9 347.781 628.74 351.414 630.61L356.356 633.153H384.356C410.941 633.153 412.589 633.044 416.972 630.996C419.51 629.81 422.66 627.335 423.972 625.496L426.356 622.153L426.646 540.653C426.806 495.828 426.694 457.803 426.397 456.153C425.733 452.47 420.257 446.136 416.502 444.708C413.847 443.699 357.151 443.378 352.216 444.344ZM98.5569 516.746C93.7219 519.298 91.7859 521.292 89.6059 525.968C88.0659 529.27 87.8559 533.194 87.8559 558.628C87.8559 574.527 88.2559 587.782 88.7449 588.085C89.2339 588.387 89.9269 589.802 90.2859 591.229C90.8619 593.526 92.1859 595.045 97.8309 599.887C98.9529 600.85 106.783 601.153 130.489 601.153H161.67L165.433 598.108C167.502 596.433 169.499 594.408 169.87 593.608C170.241 592.808 171.065 591.147 171.701 589.917C172.497 588.374 172.856 578.569 172.856 558.32C172.856 526.932 172.601 525.104 167.538 520.212C162.02 514.88 160.47 514.65 130.395 514.697C104.312 514.738 102.091 514.881 98.5569 516.746Z" fill="#863CF4"/>
</svg>
